<svg width="18" height="20" viewBox="0 0 18 20" fill="none" xmlns="http://www.w3.org/2000/svg">
<g id="ph:arrow-right-bold">
<path id="Vector" d="M2.12521 9.3367L6.98133 3.7117C7.13337 3.53558 7.33959 3.43664 7.55462 3.43664C7.76964 3.43664 7.97586 3.53558 8.12791 3.7117C8.27996 3.88782 8.36537 4.12669 8.36537 4.37577C8.36537 4.62484 8.27996 4.86371 8.12791 5.03983L4.65376 9.06248H14.5683C14.783 9.06248 14.9888 9.16126 15.1406 9.33707C15.2924 9.51289 15.3777 9.75134 15.3777 9.99998C15.3777 10.2486 15.2924 10.4871 15.1406 10.6629C14.9888 10.8387 14.783 10.9375 14.5683 10.9375H4.65376L8.12656 14.9625C8.27861 15.1386 8.36403 15.3775 8.36403 15.6265C8.36403 15.8756 8.27861 16.1145 8.12656 16.2906C7.97452 16.4667 7.7683 16.5657 7.55327 16.5657C7.33824 16.5657 7.13203 16.4667 6.97998 16.2906L2.12386 10.6656C2.0484 10.5784 1.98855 10.4748 1.94775 10.3607C1.90696 10.2466 1.88603 10.1243 1.88615 10.0008C1.88628 9.87735 1.90746 9.75511 1.94848 9.64114C1.98951 9.52717 2.04957 9.42371 2.12521 9.3367Z" fill="#B94163"/>
</g>
</svg>
