<svg width="14" height="20" viewBox="0 0 14 20" fill="none" xmlns="http://www.w3.org/2000/svg">
<g id="ph:arrow-right-bold">
<path id="Vector" d="M13.7021 10.6633L8.84594 16.2883C8.6939 16.4644 8.48768 16.5634 8.27265 16.5634C8.05763 16.5634 7.85141 16.4644 7.69936 16.2883C7.54731 16.1122 7.4619 15.8733 7.4619 15.6242C7.4619 15.3752 7.54731 15.1363 7.69936 14.9602L11.1735 10.9375H1.25894C1.04428 10.9375 0.838422 10.8387 0.686639 10.6629C0.534856 10.4871 0.449585 10.2487 0.449585 10C0.449585 9.75137 0.534856 9.51292 0.686639 9.3371C0.838422 9.16129 1.04428 9.06252 1.25894 9.06252H11.1735L7.70071 5.03751C7.54866 4.86139 7.46324 4.62252 7.46324 4.37345C7.46324 4.12438 7.54866 3.88551 7.70071 3.70939C7.85276 3.53327 8.05897 3.43433 8.274 3.43433C8.48903 3.43433 8.69525 3.53327 8.84729 3.70939L13.7034 9.33439C13.7789 9.4216 13.8387 9.52523 13.8795 9.63931C13.9203 9.75339 13.9412 9.87569 13.9411 9.99917C13.941 10.1226 13.9198 10.2449 13.8788 10.3589C13.8378 10.4728 13.7777 10.5763 13.7021 10.6633Z" fill="#ECF8F5"/>
</g>
</svg>
