<svg width="183" height="70" viewBox="0 0 183 70" fill="none" xmlns="http://www.w3.org/2000/svg">
<g id="Black And White Aesthetic Minimalist Modern Simple Typography Coconut Cosmetics Logo 2" clip-path="url(#clip0_71_218)">
<g id="Group">
<g id="Group_2">
<g id="Group_3">
<path id="Vector" d="M0.0251465 0.303955H18.8621C23.9321 0.303955 28.0661 1.66408 31.2641 4.37946C34.4621 7.08508 36.0611 10.9461 36.0611 15.9625C36.0611 19.8527 35.091 23.1092 33.1556 25.732C31.2154 28.345 28.5829 30.1877 25.2581 31.2505L43.4126 53.032H28.1246L12.0371 32.206V53.032H0.0251465V0.303955ZM12.0371 23.704H13.4411C14.5429 23.704 15.4789 23.6845 16.2491 23.6455C17.0145 23.5967 17.8871 23.4456 18.8621 23.197C19.8469 22.9386 20.6366 22.573 21.2216 22.105C21.8164 21.637 22.3331 20.9545 22.7621 20.0575C23.1911 19.1605 23.4056 18.0782 23.4056 16.801C23.4056 15.5286 23.1911 14.4415 22.7621 13.5445C22.3331 12.6475 21.8164 11.965 21.2216 11.497C20.6366 11.029 19.8469 10.6731 18.8621 10.4245C17.8871 10.1661 17.0145 10.015 16.2491 9.97596C15.4789 9.92721 14.5429 9.89795 13.4411 9.89795H12.0371V23.704Z" fill="#1B090E"/>
</g>
</g>
</g>
<g id="Group_4">
<g id="Group_5">
<g id="Group_6">
<path id="Vector_2" d="M40.8396 1.98094C42.1656 0.654943 43.7451 -0.00805664 45.5781 -0.00805664C47.4111 -0.00805664 48.9809 0.654943 50.2971 1.98094C51.6231 3.29719 52.2861 4.86694 52.2861 6.69994C52.2861 8.53294 51.6231 10.1124 50.2971 11.4384C48.9809 12.7547 47.4111 13.4079 45.5781 13.4079C43.7451 13.4079 42.1656 12.7547 40.8396 11.4384C39.5234 10.1124 38.8701 8.53294 38.8701 6.69994C38.8701 4.86694 39.5234 3.29719 40.8396 1.98094ZM39.7671 20.2524V53.0319H51.0771V20.2524H39.7671Z" fill="#1B090E"/>
</g>
</g>
</g>
<g id="Group_7">
<g id="Group_8">
<g id="Group_9">
<path id="Vector_3" d="M40.8396 1.98094C42.1656 0.654943 43.7451 -0.00805664 45.5781 -0.00805664C47.4111 -0.00805664 48.9809 0.654943 50.2971 1.98094C51.6231 3.29719 52.2861 4.86694 52.2861 6.69994C52.2861 8.53294 51.6231 10.1124 50.2971 11.4384C48.9809 12.7547 47.4111 13.4079 45.5781 13.4079C43.7451 13.4079 42.1656 12.7547 40.8396 11.4384C39.5234 10.1124 38.8701 8.53294 38.8701 6.69994C38.8701 4.86694 39.5234 3.29719 40.8396 1.98094ZM39.7671 20.2524V53.0319H51.0771V20.2524H39.7671Z" fill="#1B090E"/>
</g>
</g>
</g>
<g id="Group_10">
<g id="Group_11">
<g id="Group_12">
<path id="Vector_4" d="M55.2788 48.9759C52.2075 45.6366 50.6768 41.5416 50.6768 36.6909C50.6768 31.8306 52.2075 27.7161 55.2788 24.3474C58.3451 20.9837 62.2451 19.2969 66.9788 19.2969C71.3175 19.2969 74.9006 20.6571 77.7233 23.3724V20.2524H89.0333V53.0319H77.8403V49.3269H77.7233C74.9006 52.4372 71.3175 53.9874 66.9788 53.9874C62.2451 53.9874 58.3451 52.3202 55.2788 48.9759ZM64.8923 31.1139C63.42 32.5569 62.6888 34.4094 62.6888 36.6714C62.6888 38.9334 63.3908 40.7811 64.7948 42.2094C66.2085 43.6281 68.0708 44.3349 70.3718 44.3349C72.5801 44.3349 74.3985 43.6134 75.8318 42.1704C77.2601 40.7177 77.9768 38.8847 77.9768 36.6714C77.9768 34.4094 77.2406 32.5569 75.7733 31.1139C74.301 29.6709 72.5021 28.9494 70.3718 28.9494C68.1975 28.9494 66.3743 29.6709 64.8923 31.1139Z" fill="#1B090E"/>
</g>
</g>
</g>
<g id="Group_13">
<g id="Group_14">
<g id="Group_15">
<path id="Vector_5" d="M104.924 19.2969C106.806 19.2969 108.659 19.5114 110.482 19.9404C112.315 20.3597 113.68 20.7789 114.577 21.2079L115.922 21.8514L112.217 29.2614C109.653 27.8964 107.225 27.2139 104.924 27.2139C103.647 27.2139 102.745 27.3602 102.214 27.6429C101.678 27.9159 101.414 28.4376 101.414 29.2029C101.414 29.3736 101.434 29.5442 101.473 29.7099C101.522 29.8806 101.609 30.0414 101.726 30.1974C101.853 30.3437 101.97 30.4656 102.077 30.5679C102.194 30.6752 102.375 30.7922 102.623 30.9189C102.882 31.0506 103.082 31.1481 103.228 31.2114C103.384 31.2797 103.628 31.3772 103.969 31.5039C104.305 31.6209 104.559 31.7136 104.729 31.7769C104.91 31.8452 105.202 31.9427 105.607 32.0694C106.007 32.2011 106.314 32.2839 106.523 32.3229C107.849 32.7129 109 33.1419 109.975 33.6099C110.96 34.0779 111.993 34.7166 113.075 35.5209C114.167 36.3302 115.011 37.3491 115.61 38.5824C116.205 39.8207 116.507 41.2296 116.507 42.8139C116.507 50.2629 111.325 53.9874 100.966 53.9874C98.6258 53.9874 96.4028 53.6267 94.2968 52.9149C92.1908 52.1886 90.6601 51.4622 89.7143 50.7309L88.3103 49.5804L92.9123 41.8584C93.2633 42.1461 93.7118 42.4971 94.2578 42.9114C94.8136 43.3161 95.8178 43.8669 97.2608 44.5689C98.7136 45.2709 99.9713 45.6219 101.024 45.6219C103.374 45.6219 104.554 44.8371 104.554 43.2624C104.554 42.5361 104.252 41.9706 103.657 41.5659C103.057 41.1662 102.043 40.7079 100.615 40.2009C99.1816 39.6842 98.0652 39.2064 97.2608 38.7774C95.2182 37.7147 93.5997 36.5106 92.4053 35.1699C91.2061 33.8342 90.6113 32.0499 90.6113 29.8269C90.6113 26.5119 91.8983 23.9331 94.4723 22.0854C97.0561 20.2281 100.542 19.2969 104.924 19.2969Z" fill="#1B090E"/>
</g>
</g>
</g>
<g id="Group_16">
<g id="Group_17">
<g id="Group_18">
<path id="Vector_6" d="M117.191 1.98094C118.517 0.654943 120.096 -0.00805664 121.929 -0.00805664C123.762 -0.00805664 125.332 0.654943 126.648 1.98094C127.974 3.29719 128.637 4.86694 128.637 6.69994C128.637 8.53294 127.974 10.1124 126.648 11.4384C125.332 12.7547 123.762 13.4079 121.929 13.4079C120.096 13.4079 118.517 12.7547 117.191 11.4384C115.875 10.1124 115.221 8.53294 115.221 6.69994C115.221 4.86694 115.875 3.29719 117.191 1.98094ZM116.118 20.2524V53.0319H127.428V20.2524H116.118Z" fill="#1B090E"/>
</g>
</g>
</g>
<g id="Group_19">
<g id="Group_20">
<g id="Group_21">
<path id="Vector_7" d="M129.407 53.0319V20.2524H140.717V23.7039H140.834C143.769 20.7692 146.904 19.2969 150.233 19.2969C151.842 19.2969 153.451 19.5114 155.05 19.9404C156.649 20.3597 158.179 21.0129 159.652 21.9099C161.119 22.8069 162.309 24.0744 163.22 25.7124C164.142 27.3504 164.605 29.2566 164.605 31.4259V53.0319H153.295V34.5069C153.295 32.8056 152.749 31.3187 151.657 30.0414C150.574 28.7544 149.166 28.1109 147.425 28.1109C145.719 28.1109 144.174 28.7739 142.784 30.0999C141.405 31.4162 140.717 32.8836 140.717 34.5069V53.0319H129.407Z" fill="#1B090E"/>
</g>
</g>
</g>
<g id="Group_22">
<g id="Group_23">
<g id="Group_24">
<path id="Vector_8" d="M5.08594 59.9208C4.74468 59.9208 4.49119 60.028 4.32544 60.2328C4.16944 60.4424 4.09144 60.6959 4.09144 60.9933V62.0658H5.61244C5.81719 62.0658 5.98781 62.134 6.11944 62.2608C6.24619 62.3924 6.31444 62.5533 6.31444 62.7483C6.31444 62.9433 6.24619 63.109 6.11944 63.2358C5.98781 63.3528 5.81719 63.4113 5.61244 63.4113H4.09144V69.2808C4.09144 69.4904 4.01831 69.6659 3.87694 69.8073C3.74531 69.9535 3.56981 70.0218 3.35044 70.0218C3.14081 70.0218 2.96531 69.9535 2.82394 69.8073C2.69231 69.6659 2.62894 69.4904 2.62894 69.2808V63.4113H1.67344C1.47844 63.4113 1.30781 63.3528 1.16644 63.2358C1.03481 63.109 0.971436 62.9433 0.971436 62.7483C0.971436 62.5533 1.03481 62.3924 1.16644 62.2608C1.30781 62.134 1.47844 62.0658 1.67344 62.0658H2.62894V60.9933C2.62894 60.2669 2.85319 59.6868 3.31144 59.2578C3.77944 58.8288 4.43269 58.6143 5.28094 58.6143C5.63194 58.6143 5.93419 58.6825 6.19744 58.8093C6.47044 58.9409 6.60694 59.1359 6.60694 59.3943C6.60694 59.5893 6.54844 59.755 6.43144 59.8818C6.31444 60.0134 6.16819 60.0768 6.00244 60.0768C5.96344 60.0768 5.85131 60.0573 5.67094 60.0183C5.43694 59.9549 5.24194 59.9208 5.08594 59.9208Z" fill="#1B090E"/>
</g>
</g>
</g>
<g id="Group_25">
<g id="Group_26">
<g id="Group_27">
<path id="Vector_9" d="M18.4943 69.2808C18.4943 69.4904 18.4212 69.6659 18.2798 69.8073C18.1335 69.9535 17.9532 70.0218 17.7338 70.0218C17.5388 70.0218 17.3682 69.9535 17.2268 69.8073C17.0805 69.6659 17.0123 69.4904 17.0123 69.2808V62.5923C17.0123 62.3875 17.0805 62.212 17.2268 62.0658C17.3682 61.9244 17.5388 61.8513 17.7338 61.8513C17.9532 61.8513 18.1335 61.9244 18.2798 62.0658C18.4212 62.212 18.4943 62.3875 18.4943 62.5923V69.2808ZM17.7533 60.8372C17.451 60.8372 17.2365 60.7885 17.1098 60.6812C16.9782 60.5642 16.9148 60.3888 16.9148 60.1547V59.9013C16.9148 59.6575 16.9782 59.482 17.1098 59.3748C17.2512 59.2724 17.4657 59.2188 17.7533 59.2188C18.0507 59.2188 18.2603 59.2772 18.3773 59.3943C18.504 59.5015 18.5723 59.6673 18.5723 59.9013V60.1547C18.5723 60.4034 18.504 60.5789 18.3773 60.6812C18.2457 60.7885 18.036 60.8372 17.7533 60.8372Z" fill="#1B090E"/>
</g>
</g>
</g>
<g id="Group_28">
<g id="Group_29">
<g id="Group_30">
<path id="Vector_10" d="M34.1821 61.7343C36.0248 61.7343 36.9511 62.8555 36.9511 65.0883V69.2808C36.9511 69.4904 36.878 69.6659 36.7366 69.8073C36.605 69.9535 36.4295 70.0218 36.2101 70.0218C36.0005 70.0218 35.825 69.9535 35.6836 69.8073C35.552 69.6659 35.4886 69.4904 35.4886 69.2808V65.0883C35.4886 64.4935 35.3423 64.0109 35.0596 63.6453C34.7866 63.2845 34.3381 63.0993 33.7141 63.0993C33.2948 63.0993 32.9195 63.1919 32.5831 63.3723C32.2565 63.5575 31.9981 63.8013 31.8031 64.1133C31.6081 64.4155 31.5106 64.7373 31.5106 65.0883V69.2808C31.5106 69.4904 31.4375 69.6659 31.2961 69.8073C31.1645 69.9535 30.989 70.0218 30.7696 70.0218C30.56 70.0218 30.3845 69.9584 30.2431 69.8268C30.1115 69.6854 30.0481 69.505 30.0481 69.2808V62.6703C30.0481 62.4655 30.1163 62.29 30.2626 62.1438C30.404 62.0024 30.5746 61.9293 30.7696 61.9293C30.989 61.9293 31.1645 62.0024 31.2961 62.1438C31.4375 62.29 31.5106 62.4655 31.5106 62.6703V63.2163C31.7836 62.8019 32.159 62.4509 32.6416 62.1633C33.1193 61.8805 33.6361 61.7343 34.1821 61.7343Z" fill="#1B090E"/>
</g>
</g>
</g>
<g id="Group_31">
<g id="Group_32">
<g id="Group_33">
<path id="Vector_11" d="M55.1681 58.5947C55.3729 58.5947 55.5484 58.6679 55.6946 58.8092C55.836 58.9409 55.9091 59.1164 55.9091 59.3357V69.2807C55.9091 69.4904 55.836 69.6659 55.6946 69.8072C55.5484 69.9535 55.3729 70.0217 55.1681 70.0217C54.9439 70.0217 54.7684 69.9584 54.6416 69.8267C54.51 69.6854 54.4466 69.505 54.4466 69.2807V68.8517C54.1834 69.2174 53.8226 69.5294 53.3546 69.7877C52.8866 70.0461 52.3845 70.1777 51.8531 70.1777C51.1511 70.1777 50.5125 69.9974 49.9421 69.6317C49.3815 69.271 48.933 68.7689 48.5966 68.1302C48.27 67.4819 48.1091 66.7604 48.1091 65.9657C48.1091 65.1614 48.27 64.4399 48.5966 63.8012C48.9184 63.1529 49.362 62.6459 49.9226 62.2802C50.493 61.9195 51.117 61.7342 51.7946 61.7342C52.3406 61.7342 52.8379 61.8512 53.2961 62.0852C53.7641 62.3095 54.1444 62.602 54.4466 62.9627V59.3357C54.4466 59.1164 54.51 58.9409 54.6416 58.8092C54.7684 58.6679 54.9439 58.5947 55.1681 58.5947ZM52.0091 68.8127C52.4869 68.8127 52.9159 68.6909 53.2961 68.4422C53.6715 68.1985 53.964 67.8572 54.1736 67.4282C54.393 66.9992 54.5051 66.5117 54.5051 65.9657C54.5051 65.4344 54.393 64.9469 54.1736 64.5032C53.964 64.0645 53.6715 63.7184 53.2961 63.4697C52.9159 63.226 52.4869 63.0992 52.0091 63.0992C51.5265 63.0992 51.0975 63.226 50.7221 63.4697C50.3419 63.7184 50.0494 64.0645 49.8446 64.5032C49.635 64.9469 49.5326 65.4344 49.5326 65.9657C49.5326 66.5117 49.635 66.9992 49.8446 67.4282C50.0494 67.8572 50.3419 68.1985 50.7221 68.4422C51.0975 68.6909 51.5265 68.8127 52.0091 68.8127Z" fill="#1B090E"/>
</g>
</g>
</g>
<g id="Group_34">
<g id="Group_35">
<g id="Group_36">
<path id="Vector_12" d="M87.287 61.9293C87.5064 61.9293 87.6818 62.0024 87.8135 62.1438C87.9549 62.29 88.028 62.4655 88.028 62.6703V66.7848C88.028 67.8524 87.7257 68.686 87.131 69.2808C86.546 69.8658 85.7123 70.1583 84.635 70.1583C83.5673 70.1583 82.7337 69.8658 82.139 69.2808C81.554 68.686 81.2615 67.8524 81.2615 66.7848V62.6703C81.2615 62.4655 81.3297 62.29 81.476 62.1438C81.6173 62.0024 81.788 61.9293 81.983 61.9293C82.2023 61.9293 82.3778 62.0024 82.5095 62.1438C82.6508 62.29 82.724 62.4655 82.724 62.6703V66.7848C82.724 68.1254 83.3577 68.7933 84.635 68.7933C85.259 68.7933 85.7318 68.6275 86.0585 68.2863C86.3948 67.9499 86.5655 67.4478 86.5655 66.7848V62.6703C86.5655 62.4655 86.6288 62.29 86.7605 62.1438C86.9018 62.0024 87.0774 61.9293 87.287 61.9293Z" fill="#1B090E"/>
</g>
</g>
</g>
<g id="Group_37">
<g id="Group_38">
<g id="Group_39">
<path id="Vector_13" d="M103.707 61.7343C103.98 61.7343 104.214 61.8074 104.409 61.9488C104.604 62.095 104.702 62.2705 104.702 62.4753C104.702 62.7239 104.634 62.914 104.507 63.0408C104.375 63.1724 104.219 63.2358 104.039 63.2358C103.932 63.2358 103.79 63.2065 103.61 63.1383C103.4 63.0603 103.23 63.0213 103.103 63.0213C102.791 63.0213 102.479 63.1334 102.167 63.3528C101.865 63.577 101.621 63.8793 101.426 64.2693C101.231 64.6593 101.133 65.0883 101.133 65.5563V69.2808C101.133 69.4904 101.06 69.6659 100.919 69.8073C100.787 69.9535 100.612 70.0218 100.392 70.0218C100.183 70.0218 100.007 69.9584 99.8659 69.8268C99.7343 69.6854 99.6709 69.505 99.6709 69.2808V62.6703C99.6709 62.4655 99.7391 62.29 99.8854 62.1438C100.027 62.0024 100.197 61.9293 100.392 61.9293C100.612 61.9293 100.787 62.0024 100.919 62.1438C101.06 62.29 101.133 62.4655 101.133 62.6703V63.4503C101.367 62.9579 101.709 62.5533 102.167 62.2413C102.62 61.9195 103.132 61.7489 103.707 61.7343Z" fill="#1B090E"/>
</g>
</g>
</g>
<g id="Group_40">
<g id="Group_41">
<g id="Group_42">
<path id="Vector_14" d="M138.806 59.1992C139.011 59.2138 139.186 59.2918 139.333 59.4332C139.474 59.5648 139.547 59.7355 139.547 59.9402V69.2807C139.547 69.4903 139.474 69.6658 139.333 69.8072C139.201 69.9535 139.021 70.0217 138.787 70.0217C138.562 70.0217 138.382 69.9583 138.241 69.8267C138.094 69.6853 138.026 69.505 138.026 69.2807V62.1242L135.023 66.6677C134.955 66.7603 134.867 66.8383 134.75 66.9017C134.643 66.97 134.536 66.9943 134.419 66.9797C134.311 66.9943 134.209 66.97 134.107 66.9017C133.999 66.8383 133.912 66.7603 133.834 66.6677L130.831 61.9877V69.2807C130.831 69.505 130.762 69.6853 130.636 69.8267C130.504 69.9583 130.328 70.0217 130.109 70.0217C129.914 70.0217 129.748 69.9583 129.622 69.8267C129.49 69.6853 129.427 69.505 129.427 69.2807V59.9402C129.427 59.7452 129.495 59.5795 129.641 59.4332C129.782 59.2772 129.963 59.1992 130.187 59.1992C130.304 59.1992 130.421 59.2333 130.538 59.2967C130.655 59.3503 130.753 59.4283 130.831 59.5307L134.497 65.0882L138.202 59.5307C138.358 59.3113 138.557 59.1992 138.806 59.1992Z" fill="#1B090E"/>
</g>
</g>
</g>
<g id="Group_43">
<g id="Group_44">
<g id="Group_45">
<path id="Vector_15" d="M159.237 59.1992C159.442 59.1992 159.612 59.2723 159.744 59.4137C159.871 59.5453 159.939 59.7208 159.939 59.9402V65.8682C159.939 66.6872 159.754 67.4233 159.393 68.0717C159.042 68.7103 158.545 69.2173 157.911 69.5927C157.272 69.9583 156.556 70.1387 155.766 70.1387C154.957 70.1387 154.235 69.9583 153.601 69.5927C152.963 69.2173 152.461 68.7103 152.1 68.0717C151.749 67.4233 151.573 66.6872 151.573 65.8682V59.9402C151.573 59.7208 151.642 59.5453 151.788 59.4137C151.929 59.2723 152.11 59.1992 152.334 59.1992C152.529 59.1992 152.695 59.2723 152.841 59.4137C152.997 59.56 153.075 59.7355 153.075 59.9402V65.8682C153.075 66.4045 153.197 66.8822 153.445 67.3112C153.689 67.7402 154.021 68.0717 154.44 68.3057C154.854 68.5397 155.298 68.6567 155.766 68.6567C156.258 68.6567 156.712 68.5397 157.131 68.3057C157.56 68.0717 157.896 67.7402 158.145 67.3112C158.403 66.8822 158.535 66.4045 158.535 65.8682V59.9402C158.535 59.7208 158.593 59.5453 158.71 59.4137C158.837 59.2723 159.013 59.1992 159.237 59.1992Z" fill="#1B090E"/>
</g>
</g>
</g>
<g id="Group_46">
<g id="Group_47">
<g id="Group_48">
<path id="Vector_16" d="M180.267 69.0663C180.291 69.1589 180.306 69.2564 180.306 69.3588C180.306 69.5684 180.233 69.739 180.091 69.8658C179.96 69.9974 179.804 70.0608 179.623 70.0608C179.467 70.0608 179.331 70.0218 179.214 69.9438C179.097 69.856 179.004 69.7293 178.941 69.5733L177.985 67.3113H173.208L172.272 69.5928C172.218 69.7488 172.126 69.8658 171.999 69.9438C171.882 70.0218 171.75 70.0608 171.609 70.0608C171.399 70.0608 171.238 70.012 171.121 69.9048C171.004 69.7878 170.946 69.6318 170.946 69.4368C170.946 69.3978 170.956 69.3149 170.985 69.1833L174.924 59.6478C174.987 59.482 175.085 59.3553 175.216 59.2773C175.343 59.1895 175.494 59.1505 175.665 59.1603C175.821 59.1603 175.957 59.209 176.074 59.2968C176.201 59.3748 176.294 59.4918 176.347 59.6478L180.267 69.0663ZM173.793 65.9073H177.4L175.587 61.5783L173.793 65.9073Z" fill="#1B090E"/>
</g>
</g>
</g>
<g id="Group_49">
<g id="Group_50">
<g id="Group_51">
<path id="Vector_17" d="M175.337 39.3207C177.375 39.3207 179.11 40.0374 180.543 41.4657C181.972 42.8844 182.688 44.6199 182.688 46.6722C182.688 48.6759 181.972 50.3919 180.543 51.8202C179.11 53.234 177.375 53.9457 175.337 53.9457C173.333 53.9457 171.617 53.234 170.189 51.8202C168.77 50.3919 168.063 48.6759 168.063 46.6722C168.063 44.6199 168.77 42.8844 170.189 41.4657C171.617 40.0374 173.333 39.3207 175.337 39.3207Z" fill="#C55977"/>
</g>
</g>
</g>
</g>
<defs>
<clipPath id="clip0_71_218">
<rect width="183" height="70" fill="white"/>
</clipPath>
</defs>
</svg>
